<svg viewBox="744 242 402 478" fill="none" xmlns="http://www.w3.org/2000/svg" style="max-height: 500px" width="402" height="478"><defs><clipPath id="assetClipPath_GvfTOAzP"><path fill="#ffffff" id="path_oH_W0JMR" d="m0 0 h 610 v 737 h -610 v -737 z"/></clipPath><clipPath id="assetClipPath_mPPRjMyZ"><path fill="#ffffff" id="path_JyY9PkbV" d="m0 0 h 140.255 v 200.28 h -140.255 v -200.28 z"/></clipPath></defs><g data-asset-index="0" transform="translate(747 243)"><g data-asset-index="0" transform="scale(0.6409836065573771 0.6417910447761194)" clip-path="url(#assetClipPath_GvfTOAzP)"><g id="zQZQcmfQPSgQDeGkI36k" fill="#7F55DA"><path id="OBHWtlsx-d2X8HS_fYtn" fill="#7F55DA" d="m425.472 1.313c-33.049 3.715-75.084 17.669-91.933 69.166-24.754 75.689-74.868 83.552-130.641 74.523-11.88-1.901-24.193-2.16-36.678-.475-68.8628 9.244-165.936797 93.53-165.936797 196.349 0 99.795 20.131997 154.445 50.545997 204.775 37.585 62.21 106.4048 141.269 171.5098 131.937 40.523-5.832 67.826-31.235 90.421-62.124 47.176-64.543 74.739-79.318 154.316-86.662 1.728-.173 3.499-.346 5.227-.605 68.863-9.245 128.222-80.139 129.388-149.607 1.253-75.041 19.57-167.363-2.549-239.941-22.94-75.256-104.72-145.069-173.67-137.336z"/><path id="fe8jdOGUu-s9vLCfpJ441" fill="#7F55DA" d="m483.794 699.924c-30.371 26.871-90.68 23.977-117.551-6.394s-11.362-76.899 19.052-103.77c30.371-26.871 80.312-38.233 107.183-7.863 26.871 30.414 21.687 91.156-8.684 118.027z"/><path id="Mx5BF6iwwfkJB4q_GemC3" fill="#7F55DA" d="m332.762 721.784c-9.98 14.429-35.598 19.441-50.027 9.504-14.429-9.98-12.744-31.105-2.765-45.534 9.98-14.429 29.766-24.366 44.195-14.386 14.472 9.936 18.576 35.987 8.597 50.416z"/></g></g></g><g data-asset-index="1" transform="translate(777 252)"><g data-asset-index="1" transform="scale(2.0961819542975295 2.1020571200319553)" clip-path="url(#assetClipPath_mPPRjMyZ)"><path id="Am4VySoyDf7EE478ptqw-" fill="#1A1A1A" d="m135.732 82.255c.524-20.38-3.174-40.467-12.889-55.803-9.851-15.551-24.789-23.77-43.2-23.77-45.278 0-73.392 41.151-76.856 79.869-.309 3.457-.41 6.8-.319 10.021v11.313c.001 23.319 9.962 40.478 26.723 45.692 4.043 29.896 19.865 47.596 42.854 47.596 12.782-.006 24.785-6.072 35.071-17.641 1.174 2.117 1.978 4.135 2.444 5.993l.016 4.409c-.214 1.09-.134 2.234.298 3.296.747 1.83 2.378 3.152 4.324 3.505 1.751.319 3.475.48 5.125.48 4.379 0 8.198-1.147 11.045-3.313 3.447-2.624 5.346-6.657 5.346-11.357v-13.575c0-7.835-3.203-16.487-8.923-24.645 5.406-15.371 8.762-33.214 8.941-50.758v-11.313zm-39.336 38.055c-5.356-2.011-10.651-3.028-15.811-3.028-10.567 0-15.996 6.098-17.552 11.806-.478 1.751-.618 3.533-.474 5.282l-.009 7.565c-.176-.724-.361-1.423-.514-2.207-.483-2.459-.807-5.037-1.007-7.679 1.284-19.105 7.382-37.686 11.69-39.697 1.466-.059 2.858-.672 3.891-1.723 1.087-1.104 1.685-2.601 1.659-4.149v-13.575c-.113-6.993-3.875-20.219-17.295-20.219-3.523 0-6.806 1.073-9.836 2.988 6.395-9.077 15.788-17.662 28.5-17.662 5.491 0 9.935 2.474 13.589 7.561 5.772 8.037 8.689 20.94 9.364 35.437-.576 13.352-2.748 27.18-6.196 39.302z"/><path id="V6rKhUSCgiDuJCmKXAHQ1" fill="#7F55DA" d="m40.65 131.904c-56.529 0-36.423-123.436 38.993-123.436 80.021 0 54.744 169.333-7.602 169.344-56.754 0-41.041-119.342-11.067-119.342 11.275 0 11.512 14.526 11.512 14.526-16.134 0-29.855 87.57.74 87.57 35.687 0 54.406-141.915 6.413-141.915-48.453 0-65.362 103.424-38.263 103.424"/><path id="srBiOW-QoIdOK3Df4ZsLI" fill="#7F55DA" d="m73.408 141.895c-8.452-4.984-6.729-18.83 7.178-18.83 24.089 0 49.343 25.875 49.343 45.905 0 7.523-6.902 9.914-14.698 8.497 0 0 .584-.823.584-2.59 0-13.907-20.623-35.813-36.438-35.813-4.738 0-5.969 2.831-5.969 2.831z"/><g id="GSa28jolqsCv_nxQhXZ" fill="#FFFFFF"><path id="WrA_J57YY14gArn1O2e_9" fill="#FFFFFF" d="m79.643 8.468c-32.049 0-38.579 22.2-51.11 38.099-11.445 14.522-8.785 30.469-14.044 46.028-5.172 15.3 9.507 36.828 19.982 38.774 0 0-30.78-1.17-27.58-45.598 3.199-44.427 35.48-78.394 72.752-78.394"/><path id="JxfEStJ6A2Cix819I4PJj" fill="#FFFFFF" d="m61.01 58.448c-11.324 0-8.919 20.911-14.154 28.855-6.202 9.413-3.706 20.744-12.838 31.139 0 0-1.226-23.247 7.947-43.009 9.173-19.761 20.676-18.091 20.676-18.091"/><path id="tr7H49ucyg9xwBMyGIYrU" fill="#FFFFFF" d="m79.675 18.629c27.209 0 36.166 18.47 35.484 34.461-.646 15.137 1.169 35.628-2.829 50.342-3.047 11.214-12.302 24.784-12.302 24.784s13.133-60.597 1.318-88.472c-11.815-27.875-29.906-17.722-29.906-17.722"/></g><path id="FD5XTrANq7CGVLCvwmE62" fill="#1A1A1A" d="m79.679 8.446c55.856 0 60.398 82.492 36.851 132.326 8.083 8.587 13.435 18.987 13.435 28.177 0 6.166-4.636 8.885-10.601 8.885-1.313 0-2.691-.132-4.097-.387 0 0 .584-.823.584-2.59 0-5.573-3.341-12.417-8.327-18.635-9.464 13.112-21.528 21.567-35.446 21.569-24.158 0-35.18-21.626-37.566-46.463-48.711-8.789-27.345-122.882 45.167-122.882m-45.661 109.997c.504-29.944 11.951-59.995 26.992-59.995 11.275 0 11.512 14.527 11.512 14.527-16.134 0-29.855 87.57.74 87.57 7.672 0 14.556-6.569 20.165-16.867-4.674-2.837-9.534-4.635-14.015-4.635-4.738 0-5.969 2.83-5.969 2.83-8.452-4.984-6.729-18.828 7.177-18.828 6.566 0 13.202 1.969 19.406 5.171 14.115-41.881 12.799-109.587-20.353-109.587-43.065 0-61.181 81.643-45.657 99.813m45.663-114.334c-44.418 0-72.007 40.471-75.415 78.551-2.411 26.946 7.828 47.004 26.274 52.201 1.61 12.761 5.409 23.614 11.06 31.533 7.346 10.294 17.885 15.736 30.479 15.736 12.892-.002 25.001-6.427 35.295-18.657 2.64 4.224 4.14 8.278 4.14 11.385 0 .249-.026.411-.043.491-.63 1.14-.719 2.513-.22 3.735.56 1.374 1.782 2.366 3.241 2.631 1.67.304 3.309.458 4.874.458 9.075 0 14.939-5.19 14.939-13.223 0-9.203-4.576-19.63-12.641-28.963 7.58-17.057 12.031-37.2 12.578-57.076.61-22.149-3.859-41.932-12.584-55.705-9.572-15.11-24.088-23.096-41.978-23.096zm-46.579 86.787c.787-11.197 3.831-24.42 9.486-36.688 5.377-11.667 17.347-31.24 37.09-31.24 5.989 0 10.818 2.67 14.763 8.163 13.062 18.187 11.999 60.506 2.939 91.083-5.687-2.329-11.305-3.506-16.755-3.506-9.753 0-14.741 5.547-16.157 10.738-1.684 6.173 1.102 12.82 6.777 16.166.675.398 1.437.601 2.204.601.45 0 .902-.07 1.339-.212 1.069-.347 1.957-1.094 2.483-2.076.203-.206.861-.542 2.146-.542 2.369 0 5.077.681 7.971 1.991-4.545 7.023-9.477 10.835-14.122 10.835-1.618 0-6.54 0-10.133-8.033-2.451-5.48-3.747-13.381-3.747-22.848 0-11.321 1.91-24.022 5.109-33.975 3.709-11.54 7.333-14.038 8.031-14.038 1.163 0 2.277-.467 3.093-1.296s1.264-1.95 1.245-3.113c-.106-6.5-3.556-18.794-15.85-18.794-8.899 0-17.045 7.601-22.937 21.403-1.98 4.638-3.653 9.845-4.973 15.382z"/></g></g></svg>